<svg width="34" height="24" viewBox="0 0 34 24" fill="none" xmlns="http://www.w3.org/2000/svg">
<path d="M0.333374 23.6666V13.6666C0.333374 12.9166 0.486152 12.236 0.791708 11.6249C1.09726 11.0138 1.50004 10.4721 2.00004 9.99992V5.33325C2.00004 3.94436 2.48615 2.76381 3.45837 1.79159C4.4306 0.819363 5.61115 0.333252 7.00004 0.333252H13.6667C14.3056 0.333252 14.9028 0.451585 15.4584 0.688252C16.0139 0.924918 16.5278 1.25103 17 1.66659C17.4723 1.24992 17.9862 0.923807 18.5417 0.688252C19.0973 0.452696 19.6945 0.334363 20.3334 0.333252H27C28.3889 0.333252 29.5695 0.819363 30.5417 1.79159C31.5139 2.76381 32 3.94436 32 5.33325V9.99992C32.5 10.4721 32.9028 11.0138 33.2084 11.6249C33.5139 12.236 33.6667 12.9166 33.6667 13.6666V23.6666H30.3334V20.3333H3.66671V23.6666H0.333374ZM18.6667 8.66658H28.6667V5.33325C28.6667 4.86103 28.5067 4.46547 28.1867 4.14659C27.8667 3.8277 27.4712 3.6677 27 3.66659H20.3334C19.8612 3.66659 19.4656 3.82659 19.1467 4.14659C18.8278 4.46659 18.6678 4.86214 18.6667 5.33325V8.66658ZM5.33337 8.66658H15.3334V5.33325C15.3334 4.86103 15.1734 4.46547 14.8534 4.14659C14.5334 3.8277 14.1378 3.6677 13.6667 3.66659H7.00004C6.52782 3.66659 6.13226 3.82659 5.81337 4.14659C5.49449 4.46659 5.33449 4.86214 5.33337 5.33325V8.66658Z" fill="#222222"/>
</svg>
