<svg width="40" height="40" viewBox="0 0 40 40" fill="none" xmlns="http://www.w3.org/2000/svg">
<path d="M20 3.33325C10.81 3.33325 3.33337 10.8099 3.33337 19.9999C3.33337 29.1899 10.81 36.6666 20 36.6666C29.19 36.6666 36.6667 29.1899 36.6667 19.9999C36.6667 10.8099 29.19 3.33325 20 3.33325ZM20 33.3333C12.6484 33.3333 6.66671 27.3516 6.66671 19.9999C6.66671 12.6483 12.6484 6.66659 20 6.66659C27.3517 6.66659 33.3334 12.6483 33.3334 19.9999C33.3334 27.3516 27.3517 33.3333 20 33.3333Z" fill="#222222"/>
<path d="M21.6667 11.6667H18.3334V20.6901L23.8217 26.1784L26.1784 23.8217L21.6667 19.3101V11.6667Z" fill="#222222"/>
</svg>
