<svg width="36" height="36" viewBox="0 0 36 36" fill="none" xmlns="http://www.w3.org/2000/svg">
<path d="M18 34.6666C27.2048 34.6666 34.6667 27.2047 34.6667 17.9999C34.6667 8.79517 27.2048 1.33325 18 1.33325C8.79529 1.33325 1.33337 8.79517 1.33337 17.9999C1.33337 27.2047 8.79529 34.6666 18 34.6666Z" stroke="#222222" stroke-width="2.5"/>
<path d="M18 8V28M23 13.8333C23 11.5333 20.7617 9.66667 18 9.66667C15.2383 9.66667 13 11.5333 13 13.8333C13 16.1333 15.2383 18 18 18C20.7617 18 23 19.8667 23 22.1667C23 24.4667 20.7617 26.3333 18 26.3333C15.2383 26.3333 13 24.4667 13 22.1667" stroke="#222222" stroke-width="2.5" stroke-linecap="round"/>
</svg>
