<svg width="40" height="40" viewBox="0 0 40 40" fill="none" xmlns="http://www.w3.org/2000/svg">
<path d="M20 36.6666C29.2048 36.6666 36.6667 29.2047 36.6667 19.9999C36.6667 10.7952 29.2048 3.33325 20 3.33325C10.7953 3.33325 3.33337 10.7952 3.33337 19.9999C3.33337 29.2047 10.7953 36.6666 20 36.6666Z" stroke="#222222" stroke-width="2.5"/>
<path d="M20 10V30M25 15.8333C25 13.5333 22.7617 11.6667 20 11.6667C17.2383 11.6667 15 13.5333 15 15.8333C15 18.1333 17.2383 20 20 20C22.7617 20 25 21.8667 25 24.1667C25 26.4667 22.7617 28.3333 20 28.3333C17.2383 28.3333 15 26.4667 15 24.1667" stroke="#222222" stroke-width="2.5" stroke-linecap="round"/>
</svg>
